<svg width="44" height="44" viewBox="0 0 44 44" fill="none" xmlns="http://www.w3.org/2000/svg">
<rect width="44" height="44" rx="22" fill="#5856D6"/>
<path d="M28.0698 18.51L19.5098 14.23C13.7598 11.35 11.3998 13.71 14.2798 19.46L15.1498 21.2C15.3998 21.71 15.3998 22.3 15.1498 22.81L14.2798 24.54C11.3998 30.29 13.7498 32.65 19.5098 29.77L28.0698 25.49C31.9098 23.57 31.9098 20.43 28.0698 18.51ZM24.8398 22.75H19.4398C19.0298 22.75 18.6898 22.41 18.6898 22C18.6898 21.59 19.0298 21.25 19.4398 21.25H24.8398C25.2498 21.25 25.5898 21.59 25.5898 22C25.5898 22.41 25.2498 22.75 24.8398 22.75Z" fill="white"/>
</svg>
