<svg width="24" height="24" viewBox="0 0 24 24" fill="none" xmlns="http://www.w3.org/2000/svg">
<path d="M17.1501 7.88623C18.2028 6.8321 19.8816 6.7788 20.9976 7.7286L21.1606 7.8786L21.3192 8.04939C22.2269 9.11033 22.2269 10.6789 21.3192 11.7399L21.1683 11.903L12.5496 20.5333C12.3553 20.7279 12.1211 20.8769 11.8641 20.9708L11.6674 21.0307L7.79996 21.9813C7.37493 22.0857 6.98883 21.7374 7.0251 21.3229L7.04318 21.2182L8.03586 17.3788C8.10275 17.1201 8.22408 16.8794 8.39091 16.6723L8.52442 16.5235L17.1501 7.88623ZM20.276 8.76438C19.6981 8.19012 18.7868 8.15349 18.1664 8.65333L18.0381 8.76864L9.4124 17.4059C9.35989 17.4585 9.31741 17.5198 9.28666 17.5867L9.24955 17.691L8.51846 20.5167L11.3675 19.8167C11.417 19.8046 11.4646 19.7865 11.5093 19.763L11.5741 19.7239L11.6616 19.6509L20.2803 11.0206C20.902 10.3981 20.902 9.39121 20.276 8.76438ZM7.54529 2.29201L7.59778 2.39758L11.3353 11.9362L10.3677 12.9051L9.52543 10.7559H4.51558L3.21097 14.1064C3.09947 14.3924 2.80011 14.5502 2.5084 14.4938L2.39974 14.4625C2.113 14.3512 1.95486 14.0526 2.01136 13.7616L2.04277 13.6532L6.42998 2.39859C6.62217 1.90555 7.28511 1.86978 7.54529 2.29201ZM7.01437 4.34527L5.00315 9.50557H9.0366L7.01437 4.34527Z" fill="#5856D6"/>
</svg>
